<mxfile host="app.diagrams.net" agent="Mozilla/5.0 (X11; Ubuntu; Linux x86_64; rv:131.0) Gecko/20100101 Firefox/131.0" version="24.8.4">
  <diagram name="Page-1" id="oP40EQZyXCROxHypQ9zR">
    <mxGraphModel dx="3330" dy="1445" grid="1" gridSize="10" guides="1" tooltips="1" connect="1" arrows="1" fold="1" page="1" pageScale="1" pageWidth="850" pageHeight="1100" math="0" shadow="0">
      <root>
        <mxCell id="0" />
        <mxCell id="1" parent="0" />
        <mxCell id="3o_75RA8S-DAAJ9Y3YvY-85" value="" style="rounded=0;whiteSpace=wrap;html=1;" parent="1" vertex="1">
          <mxGeometry x="-10" y="100" width="980" height="1210" as="geometry" />
        </mxCell>
        <mxCell id="3o_75RA8S-DAAJ9Y3YvY-17" value="" style="group" parent="1" vertex="1" connectable="0">
          <mxGeometry x="80" y="120" width="890" height="1200" as="geometry" />
        </mxCell>
        <mxCell id="3o_75RA8S-DAAJ9Y3YvY-3" value="" style="group" parent="3o_75RA8S-DAAJ9Y3YvY-17" vertex="1" connectable="0">
          <mxGeometry x="70" width="800" height="1200" as="geometry" />
        </mxCell>
        <mxCell id="3o_75RA8S-DAAJ9Y3YvY-2" value="&lt;font style=&quot;font-size: 16px;&quot;&gt;Admin&lt;br&gt;&lt;/font&gt;" style="text;html=1;align=center;verticalAlign=middle;resizable=0;points=[];autosize=1;strokeColor=none;fillColor=none;" parent="3o_75RA8S-DAAJ9Y3YvY-3" vertex="1">
          <mxGeometry x="5" width="70" height="30" as="geometry" />
        </mxCell>
        <mxCell id="3o_75RA8S-DAAJ9Y3YvY-9" value="" style="shape=umlLifeline;perimeter=lifelinePerimeter;whiteSpace=wrap;html=1;container=1;dropTarget=0;collapsible=0;recursiveResize=0;outlineConnect=0;portConstraint=eastwest;newEdgeStyle={&quot;curved&quot;:0,&quot;rounded&quot;:0};participant=umlControl;size=40;fillColor=#dae8fc;strokeColor=#6c8ebf;" parent="3o_75RA8S-DAAJ9Y3YvY-3" vertex="1">
          <mxGeometry x="510" y="28.16" width="50" height="1091.84" as="geometry" />
        </mxCell>
        <mxCell id="3o_75RA8S-DAAJ9Y3YvY-38" value="" style="html=1;points=[[0,0,0,0,5],[0,1,0,0,-5],[1,0,0,0,5],[1,1,0,0,-5]];perimeter=orthogonalPerimeter;outlineConnect=0;targetShapes=umlLifeline;portConstraint=eastwest;newEdgeStyle={&quot;curved&quot;:0,&quot;rounded&quot;:0};" parent="3o_75RA8S-DAAJ9Y3YvY-9" vertex="1">
          <mxGeometry x="20" y="197.14285714285714" width="10" height="28.16326530612245" as="geometry" />
        </mxCell>
        <mxCell id="3o_75RA8S-DAAJ9Y3YvY-83" value="" style="shape=umlDestroy;whiteSpace=wrap;html=1;strokeWidth=3;targetShapes=umlLifeline;" parent="3o_75RA8S-DAAJ9Y3YvY-9" vertex="1">
          <mxGeometry x="10" y="1094.84" width="30" height="30" as="geometry" />
        </mxCell>
        <mxCell id="3o_75RA8S-DAAJ9Y3YvY-13" value="" style="shape=umlLifeline;perimeter=lifelinePerimeter;whiteSpace=wrap;html=1;container=1;dropTarget=0;collapsible=0;recursiveResize=0;outlineConnect=0;portConstraint=eastwest;newEdgeStyle={&quot;curved&quot;:0,&quot;rounded&quot;:0};participant=umlEntity;fillColor=#dae8fc;strokeColor=#6c8ebf;" parent="3o_75RA8S-DAAJ9Y3YvY-3" vertex="1">
          <mxGeometry x="640" y="32.86" width="50" height="1087.14" as="geometry" />
        </mxCell>
        <mxCell id="3o_75RA8S-DAAJ9Y3YvY-7" value="" style="shape=umlLifeline;perimeter=lifelinePerimeter;whiteSpace=wrap;html=1;container=1;dropTarget=0;collapsible=0;recursiveResize=0;outlineConnect=0;portConstraint=eastwest;newEdgeStyle={&quot;curved&quot;:0,&quot;rounded&quot;:0};participant=umlBoundary;fillColor=#dae8fc;strokeColor=#6c8ebf;" parent="3o_75RA8S-DAAJ9Y3YvY-3" vertex="1">
          <mxGeometry x="290" y="28.16" width="50" height="1091.84" as="geometry" />
        </mxCell>
        <mxCell id="3o_75RA8S-DAAJ9Y3YvY-49" value="" style="html=1;points=[[0,0,0,0,5],[0,1,0,0,-5],[1,0,0,0,5],[1,1,0,0,-5]];perimeter=orthogonalPerimeter;outlineConnect=0;targetShapes=umlLifeline;portConstraint=eastwest;newEdgeStyle={&quot;curved&quot;:0,&quot;rounded&quot;:0};" parent="3o_75RA8S-DAAJ9Y3YvY-7" vertex="1">
          <mxGeometry x="20" y="441.22448979591826" width="10" height="112.6530612244898" as="geometry" />
        </mxCell>
        <mxCell id="3o_75RA8S-DAAJ9Y3YvY-20" value="&lt;font style=&quot;font-size: 14px;&quot;&gt;Validate Credentials&lt;br&gt;&lt;/font&gt;" style="html=1;verticalAlign=bottom;endArrow=block;curved=0;rounded=0;" parent="3o_75RA8S-DAAJ9Y3YvY-3" source="3o_75RA8S-DAAJ9Y3YvY-38" edge="1">
          <mxGeometry width="80" relative="1" as="geometry">
            <mxPoint x="525.61" y="234.6938775510204" as="sourcePoint" />
            <mxPoint x="309.9988888888889" y="234.6938775510204" as="targetPoint" />
          </mxGeometry>
        </mxCell>
        <mxCell id="3o_75RA8S-DAAJ9Y3YvY-40" value="" style="group" parent="3o_75RA8S-DAAJ9Y3YvY-3" vertex="1" connectable="0">
          <mxGeometry x="320" y="272.2448979591836" width="340" height="37.55102040816327" as="geometry" />
        </mxCell>
        <mxCell id="3o_75RA8S-DAAJ9Y3YvY-24" value="&lt;font style=&quot;font-size: 14px;&quot;&gt;Fetch Company Details&lt;br&gt;&lt;/font&gt;" style="html=1;verticalAlign=bottom;endArrow=block;curved=0;rounded=0;" parent="3o_75RA8S-DAAJ9Y3YvY-40" edge="1">
          <mxGeometry x="-0.4561" width="80" relative="1" as="geometry">
            <mxPoint as="sourcePoint" />
            <mxPoint x="340" as="targetPoint" />
            <mxPoint as="offset" />
          </mxGeometry>
        </mxCell>
        <mxCell id="3o_75RA8S-DAAJ9Y3YvY-25" value="&lt;font style=&quot;font-size: 14px;&quot;&gt;Return Comany Details&lt;br&gt;&lt;/font&gt;" style="html=1;verticalAlign=bottom;endArrow=open;dashed=1;endSize=8;curved=0;rounded=0;" parent="3o_75RA8S-DAAJ9Y3YvY-40" edge="1">
          <mxGeometry x="0.45" relative="1" as="geometry">
            <mxPoint x="340" y="37.55102040816327" as="sourcePoint" />
            <mxPoint y="37.55102040816327" as="targetPoint" />
            <mxPoint as="offset" />
          </mxGeometry>
        </mxCell>
        <mxCell id="3o_75RA8S-DAAJ9Y3YvY-33" value="" style="html=1;points=[[0,0,0,0,5],[0,1,0,0,-5],[1,0,0,0,5],[1,1,0,0,-5]];perimeter=orthogonalPerimeter;outlineConnect=0;targetShapes=umlLifeline;portConstraint=eastwest;newEdgeStyle={&quot;curved&quot;:0,&quot;rounded&quot;:0};" parent="3o_75RA8S-DAAJ9Y3YvY-3" vertex="1">
          <mxGeometry x="310" y="253.46938775510205" width="10" height="75.10204081632654" as="geometry" />
        </mxCell>
        <mxCell id="3o_75RA8S-DAAJ9Y3YvY-39" value="" style="html=1;points=[[0,0,0,0,5],[0,1,0,0,-5],[1,0,0,0,5],[1,1,0,0,-5]];perimeter=orthogonalPerimeter;outlineConnect=0;targetShapes=umlLifeline;portConstraint=eastwest;newEdgeStyle={&quot;curved&quot;:0,&quot;rounded&quot;:0};" parent="3o_75RA8S-DAAJ9Y3YvY-3" vertex="1">
          <mxGeometry x="660" y="253.46938775510205" width="10" height="75.10204081632654" as="geometry" />
        </mxCell>
        <mxCell id="3o_75RA8S-DAAJ9Y3YvY-41" value="" style="group" parent="3o_75RA8S-DAAJ9Y3YvY-3" vertex="1" connectable="0">
          <mxGeometry x="35" y="337.9591836734693" width="285" height="103.26530612244898" as="geometry" />
        </mxCell>
        <mxCell id="3o_75RA8S-DAAJ9Y3YvY-29" value="&lt;font style=&quot;font-size: 14px;&quot;&gt;Selects Post Job ()&lt;/font&gt;" style="html=1;verticalAlign=bottom;endArrow=block;curved=0;rounded=0;" parent="3o_75RA8S-DAAJ9Y3YvY-41" target="3o_75RA8S-DAAJ9Y3YvY-37" edge="1">
          <mxGeometry width="80" relative="1" as="geometry">
            <mxPoint x="5" y="8.448979591836732" as="sourcePoint" />
            <mxPoint x="85" y="8.448979591836732" as="targetPoint" />
          </mxGeometry>
        </mxCell>
        <mxCell id="3o_75RA8S-DAAJ9Y3YvY-30" value="&lt;font style=&quot;font-size: 14px;&quot;&gt;Requests Job Details ()&lt;br&gt;&lt;/font&gt;" style="html=1;verticalAlign=bottom;endArrow=block;curved=0;rounded=0;" parent="3o_75RA8S-DAAJ9Y3YvY-41" source="3o_75RA8S-DAAJ9Y3YvY-7" edge="1">
          <mxGeometry width="80" relative="1" as="geometry">
            <mxPoint x="275" y="46.938775510204074" as="sourcePoint" />
            <mxPoint x="5" y="46.938775510204074" as="targetPoint" />
          </mxGeometry>
        </mxCell>
        <mxCell id="3o_75RA8S-DAAJ9Y3YvY-37" value="" style="html=1;points=[[0,0,0,0,5],[0,1,0,0,-5],[1,0,0,0,5],[1,1,0,0,-5]];perimeter=orthogonalPerimeter;outlineConnect=0;targetShapes=umlLifeline;portConstraint=eastwest;newEdgeStyle={&quot;curved&quot;:0,&quot;rounded&quot;:0};" parent="3o_75RA8S-DAAJ9Y3YvY-41" vertex="1">
          <mxGeometry x="275" width="10" height="103.26530612244898" as="geometry" />
        </mxCell>
        <mxCell id="3o_75RA8S-DAAJ9Y3YvY-31" value="&lt;font style=&quot;font-size: 14px;&quot;&gt;Provide Job Details ()&lt;br&gt;&lt;/font&gt;" style="html=1;verticalAlign=bottom;endArrow=block;curved=0;rounded=0;" parent="3o_75RA8S-DAAJ9Y3YvY-41" edge="1">
          <mxGeometry width="80" relative="1" as="geometry">
            <mxPoint x="5" y="84.48979591836732" as="sourcePoint" />
            <mxPoint x="275" y="84.48979591836732" as="targetPoint" />
          </mxGeometry>
        </mxCell>
        <mxCell id="3o_75RA8S-DAAJ9Y3YvY-14" value="&lt;font style=&quot;font-size: 16px;&quot;&gt;Job Database&lt;br&gt;&lt;/font&gt;" style="text;html=1;align=center;verticalAlign=middle;resizable=0;points=[];autosize=1;strokeColor=none;fillColor=none;" parent="3o_75RA8S-DAAJ9Y3YvY-3" vertex="1">
          <mxGeometry x="610" width="120" height="30" as="geometry" />
        </mxCell>
        <mxCell id="3o_75RA8S-DAAJ9Y3YvY-12" value="&lt;font style=&quot;font-size: 16px;&quot;&gt;Validator&lt;br&gt;&lt;/font&gt;" style="text;html=1;align=center;verticalAlign=middle;resizable=0;points=[];autosize=1;strokeColor=none;fillColor=none;" parent="3o_75RA8S-DAAJ9Y3YvY-3" vertex="1">
          <mxGeometry x="490" width="90" height="30" as="geometry" />
        </mxCell>
        <mxCell id="3o_75RA8S-DAAJ9Y3YvY-43" value="&lt;b style=&quot;font-size: 14px;&quot;&gt;[ Valid Job Details ]&lt;br&gt;&lt;/b&gt;" style="text;html=1;align=center;verticalAlign=middle;resizable=0;points=[];autosize=1;strokeColor=none;fillColor=none;" parent="3o_75RA8S-DAAJ9Y3YvY-3" vertex="1">
          <mxGeometry x="35" y="450.6122448979592" width="150" height="30" as="geometry" />
        </mxCell>
        <mxCell id="3o_75RA8S-DAAJ9Y3YvY-45" value="&lt;font style=&quot;font-size: 14px;&quot;&gt;Validate Job Details&lt;br&gt;&lt;/font&gt;" style="html=1;verticalAlign=bottom;endArrow=block;curved=0;rounded=0;" parent="3o_75RA8S-DAAJ9Y3YvY-3" source="3o_75RA8S-DAAJ9Y3YvY-9" edge="1">
          <mxGeometry width="80" relative="1" as="geometry">
            <mxPoint x="400" y="488.16326530612236" as="sourcePoint" />
            <mxPoint x="320" y="488.16326530612236" as="targetPoint" />
          </mxGeometry>
        </mxCell>
        <mxCell id="3o_75RA8S-DAAJ9Y3YvY-47" value="&lt;font style=&quot;font-size: 14px;&quot;&gt;Create Job Listing&lt;br&gt;&lt;/font&gt;" style="html=1;verticalAlign=bottom;endArrow=block;curved=0;rounded=0;" parent="3o_75RA8S-DAAJ9Y3YvY-3" edge="1">
          <mxGeometry x="-0.3614" width="80" relative="1" as="geometry">
            <mxPoint x="320" y="525.7142857142857" as="sourcePoint" />
            <mxPoint x="660" y="525.7142857142857" as="targetPoint" />
            <mxPoint x="1" as="offset" />
          </mxGeometry>
        </mxCell>
        <mxCell id="3o_75RA8S-DAAJ9Y3YvY-48" value="&lt;font style=&quot;font-size: 14px;&quot;&gt;Confirm Job Creation&lt;br&gt;&lt;/font&gt;" style="html=1;verticalAlign=bottom;endArrow=open;dashed=1;endSize=8;curved=0;rounded=0;" parent="3o_75RA8S-DAAJ9Y3YvY-3" source="3o_75RA8S-DAAJ9Y3YvY-13" edge="1">
          <mxGeometry x="0.3033" relative="1" as="geometry">
            <mxPoint x="400" y="563.2653061224488" as="sourcePoint" />
            <mxPoint x="320" y="563.2653061224488" as="targetPoint" />
            <mxPoint as="offset" />
          </mxGeometry>
        </mxCell>
        <mxCell id="3o_75RA8S-DAAJ9Y3YvY-50" value="" style="html=1;points=[[0,0,0,0,5],[0,1,0,0,-5],[1,0,0,0,5],[1,1,0,0,-5]];perimeter=orthogonalPerimeter;outlineConnect=0;targetShapes=umlLifeline;portConstraint=eastwest;newEdgeStyle={&quot;curved&quot;:0,&quot;rounded&quot;:0};" parent="3o_75RA8S-DAAJ9Y3YvY-3" vertex="1">
          <mxGeometry x="660" y="469.3877551020408" width="10" height="112.6530612244898" as="geometry" />
        </mxCell>
        <mxCell id="3o_75RA8S-DAAJ9Y3YvY-51" value="&lt;font style=&quot;font-size: 14px;&quot;&gt;Job Listing Created&lt;br&gt;&lt;/font&gt;" style="html=1;verticalAlign=bottom;endArrow=block;curved=0;rounded=0;" parent="3o_75RA8S-DAAJ9Y3YvY-3" edge="1">
          <mxGeometry width="80" relative="1" as="geometry">
            <mxPoint x="310" y="619.5918367346939" as="sourcePoint" />
            <mxPoint x="-24.5" y="619.5918367346939" as="targetPoint" />
            <Array as="points">
              <mxPoint x="265.5" y="619.5918367346939" />
            </Array>
          </mxGeometry>
        </mxCell>
        <mxCell id="3o_75RA8S-DAAJ9Y3YvY-53" value="&lt;font style=&quot;font-size: 14px;&quot;&gt;Notify Admin of new Job Listing&lt;br&gt;&lt;/font&gt;" style="html=1;verticalAlign=bottom;endArrow=block;curved=0;rounded=0;" parent="3o_75RA8S-DAAJ9Y3YvY-3" target="3o_75RA8S-DAAJ9Y3YvY-56" edge="1">
          <mxGeometry x="-0.0186" width="80" relative="1" as="geometry">
            <mxPoint x="312.25" y="647.7551020408164" as="sourcePoint" />
            <mxPoint x="50" y="647.7551020408164" as="targetPoint" />
            <mxPoint as="offset" />
          </mxGeometry>
        </mxCell>
        <mxCell id="3o_75RA8S-DAAJ9Y3YvY-55" value="" style="html=1;points=[[0,0,0,0,5],[0,1,0,0,-5],[1,0,0,0,5],[1,1,0,0,-5]];perimeter=orthogonalPerimeter;outlineConnect=0;targetShapes=umlLifeline;portConstraint=eastwest;newEdgeStyle={&quot;curved&quot;:0,&quot;rounded&quot;:0};" parent="3o_75RA8S-DAAJ9Y3YvY-3" vertex="1">
          <mxGeometry x="310" y="600.8163265306123" width="10" height="56.3265306122449" as="geometry" />
        </mxCell>
        <mxCell id="3o_75RA8S-DAAJ9Y3YvY-19" value="&lt;b style=&quot;font-size: 14px;&quot;&gt;[ Successful Login ]&lt;br&gt;&lt;/b&gt;" style="text;html=1;align=center;verticalAlign=middle;resizable=0;points=[];autosize=1;strokeColor=none;fillColor=none;" parent="3o_75RA8S-DAAJ9Y3YvY-3" vertex="1">
          <mxGeometry x="30" y="206.53061224489795" width="160" height="30" as="geometry" />
        </mxCell>
        <mxCell id="3o_75RA8S-DAAJ9Y3YvY-62" value="&lt;font style=&quot;font-size: 14px;&quot;&gt;Error Message ( Invalid Job Details )&lt;br&gt;&lt;/font&gt;" style="html=1;verticalAlign=bottom;endArrow=block;curved=0;rounded=0;" parent="3o_75RA8S-DAAJ9Y3YvY-3" target="3o_75RA8S-DAAJ9Y3YvY-65" edge="1">
          <mxGeometry width="80" relative="1" as="geometry">
            <mxPoint x="314.75" y="751.0204081632652" as="sourcePoint" />
            <mxPoint x="40.25" y="751.0204081632652" as="targetPoint" />
          </mxGeometry>
        </mxCell>
        <mxCell id="3o_75RA8S-DAAJ9Y3YvY-66" value="&lt;font style=&quot;font-size: 14px;&quot;&gt;Error Message ( Invalid Credentials )&lt;br&gt;&lt;/font&gt;" style="html=1;verticalAlign=bottom;endArrow=block;curved=0;rounded=0;" parent="3o_75RA8S-DAAJ9Y3YvY-3" edge="1">
          <mxGeometry width="80" relative="1" as="geometry">
            <mxPoint x="314.87" y="863.0632653061222" as="sourcePoint" />
            <mxPoint x="40.120000000000005" y="863.0632653061222" as="targetPoint" />
          </mxGeometry>
        </mxCell>
        <mxCell id="3o_75RA8S-DAAJ9Y3YvY-74" value="&lt;font style=&quot;font-size: 14px;&quot;&gt;Fetch Job Details&lt;br&gt;&lt;/font&gt;" style="html=1;verticalAlign=bottom;endArrow=block;curved=0;rounded=0;" parent="3o_75RA8S-DAAJ9Y3YvY-3" source="3o_75RA8S-DAAJ9Y3YvY-77" edge="1">
          <mxGeometry x="-0.3143" width="80" relative="1" as="geometry">
            <mxPoint x="315" y="1000" as="sourcePoint" />
            <mxPoint x="660" y="1000" as="targetPoint" />
            <mxPoint as="offset" />
          </mxGeometry>
        </mxCell>
        <mxCell id="3o_75RA8S-DAAJ9Y3YvY-75" value="&lt;font style=&quot;font-size: 14px;&quot;&gt;Return Job Details&lt;br&gt;&lt;/font&gt;" style="html=1;verticalAlign=bottom;endArrow=open;dashed=1;endSize=8;curved=0;rounded=0;" parent="3o_75RA8S-DAAJ9Y3YvY-3" source="3o_75RA8S-DAAJ9Y3YvY-13" edge="1">
          <mxGeometry x="0.3033" relative="1" as="geometry">
            <mxPoint x="400" y="1040" as="sourcePoint" />
            <mxPoint x="320" y="1040" as="targetPoint" />
            <mxPoint as="offset" />
          </mxGeometry>
        </mxCell>
        <mxCell id="3o_75RA8S-DAAJ9Y3YvY-77" value="" style="html=1;points=[[0,0,0,0,5],[0,1,0,0,-5],[1,0,0,0,5],[1,1,0,0,-5]];perimeter=orthogonalPerimeter;outlineConnect=0;targetShapes=umlLifeline;portConstraint=eastwest;newEdgeStyle={&quot;curved&quot;:0,&quot;rounded&quot;:0};" parent="3o_75RA8S-DAAJ9Y3YvY-3" vertex="1">
          <mxGeometry x="310" y="930" width="10" height="130" as="geometry" />
        </mxCell>
        <mxCell id="3o_75RA8S-DAAJ9Y3YvY-79" value="" style="html=1;points=[[0,0,0,0,5],[0,1,0,0,-5],[1,0,0,0,5],[1,1,0,0,-5]];perimeter=orthogonalPerimeter;outlineConnect=0;targetShapes=umlLifeline;portConstraint=eastwest;newEdgeStyle={&quot;curved&quot;:0,&quot;rounded&quot;:0};" parent="3o_75RA8S-DAAJ9Y3YvY-3" vertex="1">
          <mxGeometry x="660" y="980" width="10" height="80" as="geometry" />
        </mxCell>
        <mxCell id="3o_75RA8S-DAAJ9Y3YvY-82" value="" style="shape=umlDestroy;whiteSpace=wrap;html=1;strokeWidth=3;targetShapes=umlLifeline;" parent="3o_75RA8S-DAAJ9Y3YvY-3" vertex="1">
          <mxGeometry x="300" y="1121" width="30" height="30" as="geometry" />
        </mxCell>
        <mxCell id="3o_75RA8S-DAAJ9Y3YvY-84" value="" style="shape=umlDestroy;whiteSpace=wrap;html=1;strokeWidth=3;targetShapes=umlLifeline;" parent="3o_75RA8S-DAAJ9Y3YvY-3" vertex="1">
          <mxGeometry x="650" y="1120" width="30" height="30" as="geometry" />
        </mxCell>
        <mxCell id="3o_75RA8S-DAAJ9Y3YvY-4" value="" style="group" parent="3o_75RA8S-DAAJ9Y3YvY-17" vertex="1" connectable="0">
          <mxGeometry width="170" height="1200" as="geometry" />
        </mxCell>
        <mxCell id="3o_75RA8S-DAAJ9Y3YvY-1" value="" style="shape=umlLifeline;perimeter=lifelinePerimeter;whiteSpace=wrap;html=1;container=1;dropTarget=0;collapsible=0;recursiveResize=0;outlineConnect=0;portConstraint=eastwest;newEdgeStyle={&quot;curved&quot;:0,&quot;rounded&quot;:0};participant=umlActor;size=70;fillColor=#dae8fc;strokeColor=#6c8ebf;" parent="3o_75RA8S-DAAJ9Y3YvY-4" vertex="1">
          <mxGeometry x="85" y="37.82" width="40" height="1082.18" as="geometry" />
        </mxCell>
        <mxCell id="3o_75RA8S-DAAJ9Y3YvY-56" value="" style="html=1;points=[[0,0,0,0,5],[0,1,0,0,-5],[1,0,0,0,5],[1,1,0,0,-5]];perimeter=orthogonalPerimeter;outlineConnect=0;targetShapes=umlLifeline;portConstraint=eastwest;newEdgeStyle={&quot;curved&quot;:0,&quot;rounded&quot;:0};" parent="3o_75RA8S-DAAJ9Y3YvY-1" vertex="1">
          <mxGeometry x="15" y="600.8163265306122" width="10" height="37.55102040816326" as="geometry" />
        </mxCell>
        <mxCell id="3o_75RA8S-DAAJ9Y3YvY-32" value="" style="html=1;points=[[0,0,0,0,5],[0,1,0,0,-5],[1,0,0,0,5],[1,1,0,0,-5]];perimeter=orthogonalPerimeter;outlineConnect=0;targetShapes=umlLifeline;portConstraint=eastwest;newEdgeStyle={&quot;curved&quot;:0,&quot;rounded&quot;:0};" parent="3o_75RA8S-DAAJ9Y3YvY-1" vertex="1">
          <mxGeometry x="15" y="300.135918367347" width="10" height="103.26530612244899" as="geometry" />
        </mxCell>
        <mxCell id="3o_75RA8S-DAAJ9Y3YvY-67" value="" style="html=1;points=[[0,0,0,0,5],[0,1,0,0,-5],[1,0,0,0,5],[1,1,0,0,-5]];perimeter=orthogonalPerimeter;outlineConnect=0;targetShapes=umlLifeline;portConstraint=eastwest;newEdgeStyle={&quot;curved&quot;:0,&quot;rounded&quot;:0};" parent="3o_75RA8S-DAAJ9Y3YvY-1" vertex="1">
          <mxGeometry x="15" y="802.18" width="10" height="47.82" as="geometry" />
        </mxCell>
        <mxCell id="3o_75RA8S-DAAJ9Y3YvY-5" value="" style="shape=umlLifeline;perimeter=lifelinePerimeter;whiteSpace=wrap;html=1;container=1;dropTarget=0;collapsible=0;recursiveResize=0;outlineConnect=0;portConstraint=eastwest;newEdgeStyle={&quot;curved&quot;:0,&quot;rounded&quot;:0};participant=umlActor;size=70;fillColor=#dae8fc;strokeColor=#6c8ebf;" parent="3o_75RA8S-DAAJ9Y3YvY-4" vertex="1">
          <mxGeometry x="20" y="37.82" width="40" height="1082.18" as="geometry" />
        </mxCell>
        <mxCell id="3o_75RA8S-DAAJ9Y3YvY-6" value="&lt;font style=&quot;font-size: 16px;&quot;&gt;Company&lt;/font&gt;" style="text;html=1;align=center;verticalAlign=middle;resizable=0;points=[];autosize=1;strokeColor=none;fillColor=none;" parent="3o_75RA8S-DAAJ9Y3YvY-4" vertex="1">
          <mxGeometry x="-5" width="90" height="30" as="geometry" />
        </mxCell>
        <mxCell id="3o_75RA8S-DAAJ9Y3YvY-15" value="&lt;font style=&quot;font-size: 14px;&quot;&gt;Log&#39;s In()&lt;/font&gt;" style="html=1;verticalAlign=bottom;endArrow=block;curved=0;rounded=0;" parent="3o_75RA8S-DAAJ9Y3YvY-4" target="3o_75RA8S-DAAJ9Y3YvY-7" edge="1">
          <mxGeometry x="-0.7097" width="80" relative="1" as="geometry">
            <mxPoint x="40" y="176.48979591836732" as="sourcePoint" />
            <mxPoint x="120" y="176.48979591836732" as="targetPoint" />
            <Array as="points">
              <mxPoint x="100" y="176.48979591836732" />
            </Array>
            <mxPoint as="offset" />
          </mxGeometry>
        </mxCell>
        <mxCell id="3o_75RA8S-DAAJ9Y3YvY-16" value="" style="html=1;points=[[0,0,0,0,5],[0,1,0,0,-5],[1,0,0,0,5],[1,1,0,0,-5]];perimeter=orthogonalPerimeter;outlineConnect=0;targetShapes=umlLifeline;portConstraint=eastwest;newEdgeStyle={&quot;curved&quot;:0,&quot;rounded&quot;:0};" parent="3o_75RA8S-DAAJ9Y3YvY-4" vertex="1">
          <mxGeometry x="35" y="160" width="10" height="30.42" as="geometry" />
        </mxCell>
        <mxCell id="3o_75RA8S-DAAJ9Y3YvY-54" value="" style="html=1;points=[[0,0,0,0,5],[0,1,0,0,-5],[1,0,0,0,5],[1,1,0,0,-5]];perimeter=orthogonalPerimeter;outlineConnect=0;targetShapes=umlLifeline;portConstraint=eastwest;newEdgeStyle={&quot;curved&quot;:0,&quot;rounded&quot;:0};" parent="3o_75RA8S-DAAJ9Y3YvY-4" vertex="1">
          <mxGeometry x="35" y="600.8149527127924" width="10" height="43.04629168740667" as="geometry" />
        </mxCell>
        <mxCell id="3o_75RA8S-DAAJ9Y3YvY-59" value="&lt;b style=&quot;font-size: 14px;&quot;&gt;[ Invalid Job Details ]&lt;br&gt;&lt;/b&gt;" style="text;html=1;align=center;verticalAlign=middle;resizable=0;points=[];autosize=1;strokeColor=none;fillColor=default;" parent="3o_75RA8S-DAAJ9Y3YvY-4" vertex="1">
          <mxGeometry x="10" y="694.6938775510205" width="160" height="30" as="geometry" />
        </mxCell>
        <mxCell id="3o_75RA8S-DAAJ9Y3YvY-64" value="&lt;font style=&quot;font-size: 14px;&quot;&gt;&lt;b&gt;[ Failed Login ]&lt;/b&gt;&lt;br&gt;&lt;/font&gt;" style="text;html=1;align=center;verticalAlign=middle;resizable=0;points=[];autosize=1;strokeColor=none;fillColor=default;" parent="3o_75RA8S-DAAJ9Y3YvY-4" vertex="1">
          <mxGeometry x="10" y="797.9591836734694" width="120" height="30" as="geometry" />
        </mxCell>
        <mxCell id="3o_75RA8S-DAAJ9Y3YvY-65" value="" style="html=1;points=[[0,0,0,0,5],[0,1,0,0,-5],[1,0,0,0,5],[1,1,0,0,-5]];perimeter=orthogonalPerimeter;outlineConnect=0;targetShapes=umlLifeline;portConstraint=eastwest;newEdgeStyle={&quot;curved&quot;:0,&quot;rounded&quot;:0};" parent="3o_75RA8S-DAAJ9Y3YvY-4" vertex="1">
          <mxGeometry x="100" y="732.2448979591837" width="10" height="28.16326530612245" as="geometry" />
        </mxCell>
        <mxCell id="3o_75RA8S-DAAJ9Y3YvY-73" value="&lt;font style=&quot;font-size: 14px;&quot;&gt;Review/Manage Job Listing&lt;br&gt;&lt;/font&gt;" style="html=1;verticalAlign=bottom;endArrow=block;curved=0;rounded=0;" parent="3o_75RA8S-DAAJ9Y3YvY-4" edge="1">
          <mxGeometry width="80" relative="1" as="geometry">
            <mxPoint x="110" y="960" as="sourcePoint" />
            <mxPoint x="380" y="960" as="targetPoint" />
          </mxGeometry>
        </mxCell>
        <mxCell id="3o_75RA8S-DAAJ9Y3YvY-76" value="" style="html=1;points=[[0,0,0,0,5],[0,1,0,0,-5],[1,0,0,0,5],[1,1,0,0,-5]];perimeter=orthogonalPerimeter;outlineConnect=0;targetShapes=umlLifeline;portConstraint=eastwest;newEdgeStyle={&quot;curved&quot;:0,&quot;rounded&quot;:0};" parent="3o_75RA8S-DAAJ9Y3YvY-4" vertex="1">
          <mxGeometry x="100" y="930" width="10" height="60" as="geometry" />
        </mxCell>
        <mxCell id="3o_75RA8S-DAAJ9Y3YvY-80" value="" style="shape=umlDestroy;whiteSpace=wrap;html=1;strokeWidth=3;targetShapes=umlLifeline;" parent="3o_75RA8S-DAAJ9Y3YvY-4" vertex="1">
          <mxGeometry x="25" y="1120" width="30" height="30" as="geometry" />
        </mxCell>
        <mxCell id="3o_75RA8S-DAAJ9Y3YvY-81" value="" style="shape=umlDestroy;whiteSpace=wrap;html=1;strokeWidth=3;targetShapes=umlLifeline;" parent="3o_75RA8S-DAAJ9Y3YvY-4" vertex="1">
          <mxGeometry x="90" y="1120" width="30" height="30" as="geometry" />
        </mxCell>
        <mxCell id="3o_75RA8S-DAAJ9Y3YvY-8" value="&lt;div style=&quot;font-size: 15px;&quot;&gt;&lt;font style=&quot;font-size: 16px;&quot;&gt;FlexiRecruit System&lt;/font&gt;&lt;/div&gt;" style="text;html=1;align=center;verticalAlign=middle;resizable=0;points=[];autosize=1;strokeColor=none;fillColor=none;" parent="3o_75RA8S-DAAJ9Y3YvY-17" vertex="1">
          <mxGeometry x="325" width="160" height="30" as="geometry" />
        </mxCell>
        <mxCell id="3o_75RA8S-DAAJ9Y3YvY-18" value="&lt;font style=&quot;font-size: 16px;&quot;&gt;&lt;b&gt;alt&lt;br&gt;&lt;/b&gt;&lt;/font&gt;" style="shape=umlFrame;whiteSpace=wrap;html=1;pointerEvents=0;width=90;height=30;strokeWidth=2;fillColor=#bac8d3;strokeColor=#23445d;" parent="3o_75RA8S-DAAJ9Y3YvY-17" vertex="1">
          <mxGeometry x="-10" y="206.53" width="810" height="703.47" as="geometry" />
        </mxCell>
        <mxCell id="3o_75RA8S-DAAJ9Y3YvY-42" value="&lt;b style=&quot;font-size: 15px;&quot;&gt;alt&lt;br&gt;&lt;/b&gt;" style="shape=umlFrame;whiteSpace=wrap;html=1;pointerEvents=0;width=80;height=30;strokeWidth=2;fillColor=#bac8d3;strokeColor=#23445d;" parent="3o_75RA8S-DAAJ9Y3YvY-17" vertex="1">
          <mxGeometry x="10" y="450.61" width="770" height="319.18" as="geometry" />
        </mxCell>
        <mxCell id="3o_75RA8S-DAAJ9Y3YvY-63" value="" style="endArrow=none;dashed=1;html=1;rounded=0;strokeWidth=2;exitX=0.001;exitY=0.81;exitDx=0;exitDy=0;exitPerimeter=0;fillColor=#bac8d3;strokeColor=#23445d;" parent="3o_75RA8S-DAAJ9Y3YvY-17" edge="1">
          <mxGeometry width="50" height="50" relative="1" as="geometry">
            <mxPoint x="-10.000000000000085" y="789.9608163265304" as="sourcePoint" />
            <mxPoint x="800" y="790" as="targetPoint" />
          </mxGeometry>
        </mxCell>
        <mxCell id="3o_75RA8S-DAAJ9Y3YvY-58" value="" style="endArrow=none;dashed=1;html=1;rounded=0;strokeWidth=2;exitX=0;exitY=0.74;exitDx=0;exitDy=0;exitPerimeter=0;entryX=1.002;entryY=0.74;entryDx=0;entryDy=0;entryPerimeter=0;fillColor=#bac8d3;strokeColor=#23445d;" parent="3o_75RA8S-DAAJ9Y3YvY-17" source="3o_75RA8S-DAAJ9Y3YvY-42" target="3o_75RA8S-DAAJ9Y3YvY-42" edge="1">
          <mxGeometry width="50" height="50" relative="1" as="geometry">
            <mxPoint x="-8.526512829121202e-14" y="686.6955102040816" as="sourcePoint" />
            <mxPoint x="790" y="685.3061224489795" as="targetPoint" />
          </mxGeometry>
        </mxCell>
      </root>
    </mxGraphModel>
  </diagram>
</mxfile>
